<?xml version="1.0" encoding="UTF-8" standalone="no" ?>
<!DOCTYPE svg PUBLIC "-//W3C//DTD SVG 1.1//EN" "http://www.w3.org/Graphics/SVG/1.1/DTD/svg11.dtd">
<svg xmlns="http://www.w3.org/2000/svg" xmlns:xlink="http://www.w3.org/1999/xlink" version="1.1" width="1080" height="1080" viewBox="0 0 1080 1080" xml:space="preserve">
<desc>Created with Fabric.js 5.2.4</desc>
<defs>
</defs>
<rect x="0" y="0" width="100%" height="100%" fill="transparent"></rect>
<g transform="matrix(1 0 0 1 540 540)" id="836fc0f0-8069-4a3a-ba0b-35beaa0fdd0b"  >
</g>
<g transform="matrix(1 0 0 1 540 540)" id="d5a9de44-5fff-451d-9bd3-a492a3d5efd9"  >
<rect style="stroke: none; stroke-width: 1; stroke-dasharray: none; stroke-linecap: butt; stroke-dashoffset: 0; stroke-linejoin: miter; stroke-miterlimit: 4; fill: rgb(255,255,255); fill-rule: nonzero; opacity: 1; visibility: hidden;" vector-effect="non-scaling-stroke"  x="-540" y="-540" rx="0" ry="0" width="1080" height="1080" />
</g>
<g transform="matrix(1 0 0 1 540 540)"  >
<g style="" vector-effect="non-scaling-stroke"   >
		<g transform="matrix(0.13 0 0 -0.13 -211.97 -3.72)"  >
<path style="stroke: none; stroke-width: 1; stroke-dasharray: none; stroke-linecap: butt; stroke-dashoffset: 0; stroke-linejoin: miter; stroke-miterlimit: 4; fill: rgb(254,254,254); fill-rule: nonzero; opacity: 1;" vector-effect="non-scaling-stroke"  transform=" translate(-1180, -1301.35)" d="M 500 2411 C 414 2384 344 2324 309 2246 C 295 2214 290 2180 290 2098 L 290 1990 L 319 1990 C 387 1990 553 1923 648 1858 C 754 1785 859 1653 911 1528 C 960 1409 970 1334 970 1093 C 970 973 973 723 977 538 L 983 201 L 1029 193 C 1088 183 1272 183 1331 193 L 1377 201 L 1384 763 C 1389 1176 1395 1343 1405 1391 C 1448 1594 1582 1782 1760 1888 C 1838 1935 1989 1990 2039 1990 L 2070 1990 L 2070 2088 C 2070 2204 2054 2260 2003 2319 C 1984 2342 1945 2373 1916 2388 L 1865 2415 L 1195 2417 C 826 2418 514 2415 500 2411 z" stroke-linecap="round" />
</g>
		<g transform="matrix(0.13 0 0 -0.13 -14.45 -14.03)"  >
<path style="stroke: none; stroke-width: 1; stroke-dasharray: none; stroke-linecap: butt; stroke-dashoffset: 0; stroke-linejoin: miter; stroke-miterlimit: 4; fill: rgb(254,254,254); fill-rule: nonzero; opacity: 1;" vector-effect="non-scaling-stroke"  transform=" translate(-2645, -1393.69)" d="M 2412 1823 L 2415 1735 L 2488 1732 L 2560 1729 L 2560 1305 L 2560 882 L 2641 878 C 2685 876 2725 879 2731 885 C 2736 890 2740 1063 2740 1312 L 2740 1729 L 2808 1732 L 2875 1735 L 2878 1823 L 2881 1910 L 2645 1910 L 2409 1910 L 2412 1823 z" stroke-linecap="round" />
</g>
		<g transform="matrix(0.13 0 0 -0.13 121.62 -14.07)"  >
<path style="stroke: none; stroke-width: 1; stroke-dasharray: none; stroke-linecap: butt; stroke-dashoffset: 0; stroke-linejoin: miter; stroke-miterlimit: 4; fill: rgb(254,254,254); fill-rule: nonzero; opacity: 1;" vector-effect="non-scaling-stroke"  transform=" translate(-3665.5, -1393.98)" d="M 3526 1900 C 3511 1895 3489 1883 3478 1873 C 3432 1832 3430 1814 3430 1388 C 3430 1015 3431 982 3448 950 C 3480 891 3520 878 3666 879 C 3806 880 3833 889 3874 943 C 3894 970 3895 985 3898 1226 L 3901 1481 L 3783 1478 L 3665 1475 L 3662 1396 C 3659 1312 3664 1300 3706 1300 C 3726 1300 3727 1295 3729 1188 C 3729 1126 3726 1069 3722 1062 C 3716 1053 3695 1050 3659 1052 L 3605 1055 L 3602 1393 L 3600 1731 L 3662 1728 L 3725 1725 L 3728 1673 L 3731 1620 L 3816 1620 L 3900 1620 L 3900 1703 C 3899 1870 3854 1910 3665 1909 C 3605 1909 3542 1904 3526 1900 z" stroke-linecap="round" />
</g>
		<g transform="matrix(0.13 0 0 -0.13 275.73 -14.28)"  >
<path style="stroke: none; stroke-width: 1; stroke-dasharray: none; stroke-linecap: butt; stroke-dashoffset: 0; stroke-linejoin: miter; stroke-miterlimit: 4; fill: rgb(254,254,254); fill-rule: nonzero; opacity: 1;" vector-effect="non-scaling-stroke"  transform=" translate(-4825.01, -1395.5)" d="M 4449 1888 C 4446 1875 4445 1665 4445 1420 L 4445 975 L 4468 942 C 4505 891 4536 880 4649 880 C 4759 880 4792 890 4809 927 L 4820 951 L 4854 916 L 4887 880 L 4996 880 C 5086 880 5110 883 5137 900 C 5208 943 5205 922 5205 1440 L 5205 1905 L 5123 1908 L 5040 1911 L 5038 1483 L 5035 1055 L 4973 1052 L 4910 1049 L 4910 1480 L 4910 1910 L 4825 1910 L 4740 1910 L 4740 1480 L 4740 1049 L 4678 1052 L 4615 1055 L 4615 1480 L 4615 1905 L 4534 1908 C 4456 1911 4452 1910 4449 1888 z" stroke-linecap="round" />
</g>
		<g transform="matrix(0.13 0 0 -0.13 -293.88 53.43)"  >
<path style="stroke: none; stroke-width: 1; stroke-dasharray: none; stroke-linecap: butt; stroke-dashoffset: 0; stroke-linejoin: miter; stroke-miterlimit: 4; fill: rgb(254,254,254); fill-rule: nonzero; opacity: 1;" vector-effect="non-scaling-stroke"  transform=" translate(-549.95, -885)" d="M 295 1424 C 284 1294 296 936 313 859 C 368 618 543 390 757 281 C 780 270 802 260 806 260 C 810 260 810 497 807 788 C 801 1348 799 1373 750 1470 L 730 1510 L 516 1510 L 302 1510 L 295 1424 z" stroke-linecap="round" />
</g>
		<g transform="matrix(0.13 0 0 -0.13 -125.81 53.43)"  >
<path style="stroke: none; stroke-width: 1; stroke-dasharray: none; stroke-linecap: butt; stroke-dashoffset: 0; stroke-linejoin: miter; stroke-miterlimit: 4; fill: rgb(254,254,254); fill-rule: nonzero; opacity: 1;" vector-effect="non-scaling-stroke"  transform=" translate(-1810.41, -885)" d="M 1603 1454 C 1557 1353 1552 1292 1551 758 C 1550 402 1553 260 1560 260 C 1567 260 1592 272 1618 287 C 1801 393 1950 569 2015 757 C 2057 877 2070 985 2070 1210 C 2070 1324 2067 1438 2064 1464 L 2057 1510 L 1843 1510 L 1629 1510 L 1603 1454 z" stroke-linecap="round" />
</g>
</g>
</g>
</svg>